<?xml version="1.0" standalone="no"?>
<!DOCTYPE svg PUBLIC "-//W3C//DTD SVG 20010904//EN"
 "http://www.w3.org/TR/2001/REC-SVG-20010904/DTD/svg10.dtd">
<svg version="1.0" xmlns="http://www.w3.org/2000/svg"
 width="300.000000pt" height="300.000000pt" viewBox="0 0 300.000000 300.000000"
 preserveAspectRatio="xMidYMid meet">
<metadata>
Created by potrace 1.10, written by Peter Selinger 2001-2011
</metadata>
<g transform="translate(0.000000,300.000000) scale(0.100000,-0.100000)"
fill="#000000" stroke="none">
<path d="M1323 1929 c4 -13 7 -99 7 -191 l0 -166 53 -30 c30 -17 66 -45 80
-62 l27 -32 0 195 0 194 -86 58 c-76 50 -86 54 -81 34z m115 -97 c21 -18 22
-27 22 -156 l0 -136 -37 15 c-67 27 -73 42 -73 175 0 146 3 154 38 136 15 -8
37 -23 50 -34z"/>
<path d="M1592 1892 l-82 -56 0 -189 0 -189 40 35 c21 20 57 45 79 56 l40 21
3 187 c2 104 3 189 3 190 0 1 -37 -24 -83 -55z m50 -148 c2 -74 0 -142 -5
-149 -8 -15 -63 -45 -83 -45 -10 0 -14 31 -16 123 l-3 122 43 43 c23 23 47 42
52 42 5 0 10 -61 12 -136z"/>
<path d="M1270 1725 l0 -195 23 0 c12 0 42 -9 66 -20 28 -13 39 -15 32 -7 -6
8 -29 22 -51 32 l-40 18 0 177 c0 149 -2 179 -15 184 -13 5 -15 -20 -15 -189z"/>
<path d="M1713 1913 c-10 -3 -13 -50 -13 -182 l0 -178 -40 -18 c-22 -10 -45
-24 -51 -32 -7 -8 4 -6 32 7 24 11 54 20 67 20 l22 0 0 195 c0 107 -1 195 -2
194 -2 0 -9 -3 -15 -6z"/>
<path d="M1230 1681 l0 -188 53 -6 c67 -6 72 -1 13 15 l-46 12 0 178 c0 112
-4 178 -10 178 -6 0 -10 -70 -10 -189z"/>
<path d="M1750 1692 l0 -178 -46 -12 c-59 -16 -54 -21 14 -15 l52 6 0 188 c0
119 -4 189 -10 189 -6 0 -10 -66 -10 -178z"/>
<path d="M1850 1460 l0 -25 355 0 355 0 0 22 0 23 -355 2 -355 3 0 -25z"/>
<path d="M438 1455 l-5 -25 358 0 359 0 0 25 0 25 -354 0 -354 0 -4 -25z"/>
<path d="M1178 1299 c-29 -16 -22 -68 17 -129 19 -30 35 -63 35 -72 0 -25 -31
-23 -37 2 -6 22 -43 28 -43 7 0 -49 78 -78 100 -38 17 32 12 52 -26 113 -19
32 -34 66 -32 75 5 25 29 28 35 4 7 -26 33 -28 33 -2 0 41 -44 62 -82 40z"/>
<path d="M1289 1303 c-4 -59 5 -230 13 -240 13 -16 60 -17 76 -1 8 8 12 52 12
130 0 98 -3 118 -15 118 -12 0 -15 -19 -15 -115 0 -108 -1 -115 -20 -115 -19
0 -20 7 -20 115 0 96 -3 115 -15 115 -8 0 -15 -3 -16 -7z"/>
<path d="M1420 1180 c0 -107 3 -130 15 -130 11 0 15 19 17 93 l3 92 17 -89
c26 -128 31 -129 53 -6 8 46 17 85 20 88 3 3 5 -36 5 -86 0 -76 3 -92 15 -92
13 0 15 19 13 128 -3 120 -4 127 -24 130 -19 3 -22 -5 -34 -83 -7 -47 -17 -85
-21 -85 -4 0 -12 38 -19 85 -11 80 -14 85 -36 85 l-24 0 0 -130z"/>
<path d="M1621 1218 c-6 -51 -14 -110 -18 -130 -4 -30 -2 -38 10 -38 9 0 17
13 21 35 5 26 12 35 26 35 16 0 20 -7 20 -30 0 -27 22 -51 35 -38 2 2 -3 61
-12 131 -17 126 -17 127 -43 127 -26 0 -27 -2 -39 -92z m51 -25 c3 -34 0 -43
-12 -43 -12 0 -15 9 -12 43 4 51 13 81 18 57 2 -8 4 -34 6 -57z"/>
<path d="M1740 1180 c0 -124 1 -130 20 -130 19 0 20 4 14 58 -8 65 3 63 27 -6
11 -34 21 -48 38 -50 l21 -3 -23 53 c-24 53 -24 55 -6 77 23 28 24 79 3 109
-11 16 -25 22 -55 22 l-39 0 0 -130z m68 52 c3 -37 1 -42 -17 -42 -18 0 -21 6
-21 46 0 38 3 45 18 42 12 -2 18 -15 20 -46z"/>
</g>
</svg>
